<?xml version="1.0" encoding="UTF-8"?>
<svg width="1200pt" height="1200pt" version="1.1" viewBox="0 0 1200 1200" xmlns="http://www.w3.org/2000/svg">
 <path d="m424.84 43.426c-47.324 0-89.398 21.301-117.64 55.086l-15 17.961-17.363-15.676c-18.523-16.727-42.977-26.812-69.863-26.812h-77.211c-58.352 0-105.34 47.062-105.34 105.11v439.88c0 58.352 46.949 105.34 105.34 105.34h77.211c28.125 0 53.438-11.062 72.227-28.875l9.6016-9.0742 30.336 9.5234h0.30078l2.3984 0.75 0.67578 0.14844c4.125 1.1992 53.477 15.562 102.38 50.324 48.898 34.762 99.375 92.738 99.375 177.26v204.49c0 8.5508 5.5859 16.164 13.836 18.824h0.22656l0.14844 0.074218c-1.9883-0.67578 7.2734 2.25 19.051 4.4609 11.773 2.2109 27.977 4.3867 45.938 4.3867 31.164 0 67.012-6.5625 96.898-28.5 41.023-30.301 63.148-80.664 63.148-157.16v-191.96h269.55c81.113 0 146.55-65.625 146.55-146.48 0-8.8516-0.75-17.664-2.2109-25.801v-0.14844l-65.477-412.2-0.074219-0.30078c-6.1133-48.523-25.988-85.125-56.852-110.51-30.863-25.387-73.574-40.051-127.5-40.051zm-0.22266 39.035h500.62c60.637 0 99.336 21.523 120.19 48.336 20.852 26.812 24.113 56.664 25.574 68.699l0.14844 1.3125v0.22656l65.551 411.26c1.2383 7.0859 1.5391 13.836 1.5391 19.988 0.33594 59.289-48.188 107.89-107.21 107.89h-289.24c-11.062 0-19.613 8.6641-19.613 19.426v211.54c0 56.512-13.461 101.02-46.875 125.62-29.887 22.238-66.711 22.988-93.977 20.211l-20.211-2.1367v-190.2c0-97.688-51.676-160.88-107.44-202.8-55.762-41.926-115.16-60.227-122.48-62.324l-0.375-0.074219-24.227-7.9141 2.3984-18.602c0.67578-4.9492 1.0859-9.5625 1.0859-13.914v-421.95c0-62.961 51.637-114.56 114.56-114.56zm646.5 118.58v1.1641c0-6.2617 0.22656-5.7734 0.22656 1.4609zm-943.35-88.238h77.211c36.375 0 66.301 30 66.301 66.375v439.84c0 36.336-29.773 66.562-66.301 66.562h-77.211c-36.336 0-66.301-29.961-66.301-66.301v-440.1c0-36.336 29.887-66.375 66.301-66.375z" fill="#9b9b9b"/>
</svg>
