<?xml version="1.0" encoding="UTF-8"?>
<svg width="1200pt" height="1200pt" version="1.1" viewBox="0 0 1200 1200" xmlns="http://www.w3.org/2000/svg">
 <path d="m594.38 43.5c-32.512 0.9375-60.301 9.4883-58.164 8.7734l-0.44922 0.14844c-7.9141 2.4375-13.539 10.086-13.539 18.676v204.49c0 84.488-50.477 142.54-99.375 177.34-24.449 17.398-48.824 29.512-67.688 37.574-16.273 6.9375-24.676 9.4141-30.523 11.062l-0.60156 0.52344-37.273 11.738-9.6016-9.0742c-19.051-18-44.289-28.875-72.227-28.875h-77.211c-58.273-0.22656-105.26 46.688-105.26 105.04v439.84c0 58.312 47.023 105.34 105.34 105.34h77.137c26.887 0 51.336-10.086 69.863-26.812l17.289-15.602 15 17.812c28.273 33.602 70.461 55.238 117.71 55.238h500.55c53.926 0 96.602-14.664 127.43-40.051 30.824-25.387 50.699-62.023 56.852-110.51l0.074219-0.30078 62.25-390.98 3.375-20.738c1.3516-8.9609 2.1758-17.926 2.2109-26.512-0.22656-80.852-65.926-146.55-146.7-146.55h-269.55v-191.96c0-76.836-21.789-127.05-63-157.09h-0.074218c-32.176-23.625-71.363-29.363-103.88-28.426zm8.8516 38.738c23.023 0.26172 49.727 4.5 72.148 21.227 33.188 24.711 46.801 68.961 46.801 125.48v211.54c0 11.062 8.5508 19.613 19.613 19.613h288.94c59.25 0 107.51 48.562 107.51 107.51 0 6.0742-0.52344 11.926-1.2383 17.586v0.86328l-0.14844 0.75v0.44922l-65.699 411.98v0.22656l-0.14844 1.3125c-1.4609 11.961-4.6875 41.887-25.5 68.699s-59.512 48.262-120.26 48.262h-500.55c-62.926 0-114.56-51.523-114.56-114.49v-422.4c0-4.5-0.375-9.1484-1.0117-13.988l-2.3984-18.523 24.227-7.9141 0.375-0.074219c7.2734-2.1016 66.711-20.398 122.48-62.324 55.762-41.926 107.36-105.07 107.36-202.73v-190.05l20.211-2.0625c6.8242-0.67578 14.137-1.0508 21.824-0.9375zm467.92 916.99 0.22656-2.625c0 7.2383-0.22656 7.7266-0.22656 1.4609zm-943.35-484.61h77.137c36.336 0 66.375 29.887 66.375 66.301v440.02c0 36.375-30 66.301-66.375 66.301h-77.137c-36.336 0-66.375-29.887-66.375-66.301v-440.02c0-36.375 30-66.301 66.375-66.301z" fill="#9b9b9b"/>
</svg>
